<svg xmlns="http://www.w3.org/2000/svg" viewBox="0 0 1200 630" width="1200" height="630">
  <rect width="1200" height="630" fill="#08090c"/>
  <!-- grid lines -->
  <line x1="0" y1="0" x2="1200" y2="0" stroke="rgba(0,217,255,0.04)" stroke-width="1"/>
  <g stroke="rgba(0,217,255,0.03)" stroke-width="1" fill="none">
    <line x1="56" y1="0" x2="56" y2="630"/><line x1="112" y1="0" x2="112" y2="630"/>
    <line x1="168" y1="0" x2="168" y2="630"/><line x1="224" y1="0" x2="224" y2="630"/>
    <line x1="280" y1="0" x2="280" y2="630"/><line x1="336" y1="0" x2="336" y2="630"/>
    <line x1="392" y1="0" x2="392" y2="630"/><line x1="448" y1="0" x2="448" y2="630"/>
    <line x1="504" y1="0" x2="504" y2="630"/><line x1="560" y1="0" x2="560" y2="630"/>
    <line x1="616" y1="0" x2="616" y2="630"/><line x1="672" y1="0" x2="672" y2="630"/>
    <line x1="728" y1="0" x2="728" y2="630"/><line x1="784" y1="0" x2="784" y2="630"/>
    <line x1="840" y1="0" x2="840" y2="630"/><line x1="896" y1="0" x2="896" y2="630"/>
    <line x1="952" y1="0" x2="952" y2="630"/><line x1="1008" y1="0" x2="1008" y2="630"/>
    <line x1="1064" y1="0" x2="1064" y2="630"/><line x1="1120" y1="0" x2="1120" y2="630"/>
    <line x1="0" y1="56" x2="1200" y2="56"/><line x1="0" y1="112" x2="1200" y2="112"/>
    <line x1="0" y1="168" x2="1200" y2="168"/><line x1="0" y1="224" x2="1200" y2="224"/>
    <line x1="0" y1="280" x2="1200" y2="280"/><line x1="0" y1="336" x2="1200" y2="336"/>
    <line x1="0" y1="392" x2="1200" y2="392"/><line x1="0" y1="448" x2="1200" y2="448"/>
    <line x1="0" y1="504" x2="1200" y2="504"/><line x1="0" y1="560" x2="1200" y2="560"/>
  </g>
  <!-- glow -->
  <ellipse cx="600" cy="100" rx="500" ry="200" fill="rgba(0,217,255,0.06)"/>
  <!-- icon -->
  <rect x="530" y="170" width="140" height="140" rx="28" fill="#0f1116" stroke="rgba(0,217,255,0.25)" stroke-width="1.5"/>
  <g stroke="#ffffff" stroke-width="12" stroke-linecap="round" stroke-linejoin="round" fill="none">
    <line x1="600" y1="200" x2="600" y2="262"/>
    <polyline points="570,244 600,274 630,244"/>
    <line x1="565" y1="288" x2="635" y2="288"/>
  </g>
  <!-- wordmark -->
  <text x="600" y="378" font-family="system-ui,-apple-system,sans-serif" font-weight="800" font-size="72" fill="white" text-anchor="middle" letter-spacing="-2">File<tspan fill="#00d9ff">Drop</tspan></text>
  <!-- tagline -->
  <text x="600" y="430" font-family="system-ui,-apple-system,sans-serif" font-size="22" fill="#4a5568" text-anchor="middle" letter-spacing="3">INSTANT · ENCRYPTED · PEER-TO-PEER</text>
  <!-- bottom badge -->
  <rect x="450" y="490" width="300" height="44" rx="22" fill="rgba(0,217,255,0.08)" stroke="rgba(0,217,255,0.2)" stroke-width="1"/>
  <text x="600" y="518" font-family="system-ui,-apple-system,sans-serif" font-size="16" fill="#00d9ff" text-anchor="middle" letter-spacing="2">NO UPLOADS · NO SERVERS</text>
</svg>
